<?xml version="1.0" encoding="utf-8"?>
<!-- Generator: Adobe Illustrator 27.0.0, SVG Export Plug-In . SVG Version: 6.00 Build 0)  -->
<svg version="1.1" id="Layer_1" xmlns="http://www.w3.org/2000/svg" xmlns:xlink="http://www.w3.org/1999/xlink" x="0px" y="0px"
	 viewBox="0 0 222.37 132.44" style="enable-background:new 0 0 222.37 132.44;" xml:space="preserve">
<style type="text/css">
	.st0{fill:#FFFFFF;}
</style>
<g>
	<g>
		<path class="st0" d="M1.95,116.56c0,0.75,0.62,1.37,1.37,1.37h10.81c1.82,0,3.31,1.49,3.31,3.31v3.06c0,1.82-1.49,3.31-3.31,3.31
			H0.48v-1.94h13.65c0.75,0,1.37-0.62,1.37-1.37v-3.06c0-0.75-0.62-1.37-1.37-1.37H3.32c-1.82,0-3.31-1.49-3.31-3.31v-3.06
			c0-1.82,1.49-3.31,3.31-3.31h13.65v1.94H3.32c-0.75,0-1.37,0.62-1.37,1.37V116.56z"/>
		<path class="st0" d="M31.21,115.01h1.94v9.29c0,1.84-1.49,3.31-3.31,3.31h-5.98c-1.84,0-3.31-1.47-3.31-3.31v-9.29h1.94v9.26
			c0,0.77,0.62,1.39,1.39,1.39h5.95c0.77,0,1.37-0.62,1.37-1.39V115.01z"/>
		<path class="st0" d="M36.97,115.01h9.26c1.84,0,3.31,1.49,3.31,3.31v5.98c0,1.82-1.47,3.31-3.31,3.31h-7.32v4.83h-1.94V115.01z
			 M47.63,118.32c0-0.75-0.62-1.37-1.39-1.37h-7.32v8.72h7.32c0.77,0,1.39-0.62,1.39-1.39V118.32z"/>
		<path class="st0" d="M65.91,122.28H55.25v1.99c0,0.77,0.6,1.39,1.37,1.39h8.32v1.94h-8.32c-1.82,0-3.31-1.49-3.31-3.31v-5.98
			c0-1.82,1.49-3.31,3.31-3.31h5.98c1.82,0,3.31,1.49,3.31,3.31V122.28z M55.25,120.34h8.72v-1.99c0-0.77-0.62-1.39-1.39-1.39h-5.95
			c-0.77,0-1.37,0.62-1.37,1.39V120.34z"/>
		<path class="st0" d="M79.08,115.01v1.94h-7.74v10.66H69.4v-12.6h1.94v1.92c0-1.07,0.87-1.92,1.94-1.92H79.08z"/>
		<path class="st0" d="M106.58,127.61h-2.24l-4.46-7.74h-9.74v7.74H88.2v-17.43h14.12c1.82,0,3.31,1.49,3.31,3.31v3.06
			c0,1.82-1.49,3.31-3.31,3.31h-0.2L106.58,127.61z M90.14,112.12v5.8h12.18c0.75,0,1.37-0.62,1.37-1.37v-3.04
			c0-0.77-0.62-1.39-1.37-1.39H90.14z"/>
		<path class="st0" d="M121.7,122.28h-10.66v1.99c0,0.77,0.6,1.39,1.37,1.39h8.32v1.94h-8.32c-1.82,0-3.31-1.49-3.31-3.31v-5.98
			c0-1.82,1.49-3.31,3.31-3.31h5.98c1.82,0,3.31,1.49,3.31,3.31V122.28z M111.04,120.34h8.72v-1.99c0-0.77-0.62-1.39-1.39-1.39
			h-5.95c-0.77,0-1.37,0.62-1.37,1.39V120.34z"/>
		<path class="st0" d="M133.88,120.34c1.82,0,3.31,1.49,3.31,3.31v0.65c0,1.84-1.49,3.31-3.31,3.31h-8.82v-1.94h8.79
			c0.77,0,1.39-0.62,1.39-1.39v-0.6c0-0.77-0.62-1.39-1.39-1.39h-5.95c-1.84,0-3.31-1.49-3.31-3.31v-0.65
			c0-1.84,1.47-3.31,3.31-3.31h8.64v1.94h-8.64c-0.77,0-1.37,0.62-1.37,1.39v0.6c0,0.77,0.6,1.39,1.37,1.39H133.88z"/>
		<path class="st0" d="M149.71,115.01c1.82,0,3.31,1.47,3.31,3.31v5.98c0,1.84-1.49,3.31-3.31,3.31h-5.98
			c-1.84,0-3.31-1.47-3.31-3.31v-5.98c0-1.84,1.47-3.31,3.31-3.31H149.71z M151.08,118.35c0-0.77-0.62-1.39-1.39-1.39h-5.93
			c-0.77,0-1.39,0.62-1.39,1.39v5.93c0,0.77,0.62,1.39,1.39,1.39h5.93c0.77,0,1.39-0.62,1.39-1.39V118.35z"/>
		<path class="st0" d="M156.91,110.18h1.94v17.43h-1.94V110.18z"/>
		<path class="st0" d="M173.38,115.01h1.94v9.29c0,1.84-1.49,3.31-3.31,3.31h-5.98c-1.84,0-3.31-1.47-3.31-3.31v-9.29h1.94v9.26
			c0,0.77,0.62,1.39,1.39,1.39h5.95c0.77,0,1.37-0.62,1.37-1.39V115.01z"/>
		<path class="st0" d="M182.44,112.05v2.96h1.94v1.94h-1.94v10.66h-1.92v-10.66h-1.94v-1.94h1.94v-2.96H182.44z"/>
		<path class="st0" d="M187.6,111.15h1.94v1.92h-1.94V111.15z M187.6,115.01h1.94v12.6h-1.94V115.01z"/>
		<path class="st0" d="M202.54,115.01c1.82,0,3.31,1.47,3.31,3.31v5.98c0,1.84-1.49,3.31-3.31,3.31h-5.98
			c-1.84,0-3.31-1.47-3.31-3.31v-5.98c0-1.84,1.47-3.31,3.31-3.31H202.54z M203.91,118.35c0-0.77-0.62-1.39-1.39-1.39h-5.93
			c-0.77,0-1.39,0.62-1.39,1.39v5.93c0,0.77,0.62,1.39,1.39,1.39h5.93c0.77,0,1.39-0.62,1.39-1.39V118.35z"/>
		<path class="st0" d="M211.71,115.01v1.94c0-1.07,0.85-1.94,1.92-1.94h5.43c1.82,0,3.31,1.47,3.31,3.31v9.29h-1.97v-9.26
			c0-0.77-0.6-1.39-1.37-1.39h-7.32v10.66h-1.97v-12.6H211.71z"/>
	</g>
	<g>
		<g>
			<g id="XMLID_00000054261887759305762340000007786802640635064252_">
				<g id="XMLID_00000144295652206692179930000000313640730864342658_">
					<path id="XMLID_00000120553588260841402290000008779108645429090987_" class="st0" d="M49.53,46.96h-11.7l-3.58-8.63l-19.49,0
						l-3.26,8.63H0L17.57,3.37l12.59,0L49.53,46.96z M24.03,13.78l-6.39,16.94h13.42L24.03,13.78z"/>
					<path id="XMLID_00000115492367008569876380000004417320222775751082_" class="st0" d="M92.02,3.37l9.46,0v43.59H90.61V19.73
						L78.85,33.4h-1.66L65.43,19.73v27.23H54.56V3.37l9.46,0l14,16.17L92.02,3.37z"/>
					<path id="XMLID_00000101813185561532026090000000424301970855041928_" class="st0" d="M129.01,3.37
						c15.91,0,24.09,9.9,24.09,21.86c0,12.53-7.92,21.73-25.31,21.73h-18.02V3.37L129.01,3.37z M120.63,38.97h7.09
						c10.93,0,14.19-7.41,14.19-13.81c0-7.48-4.03-13.8-14.32-13.8h-6.96V38.97z"/>
				</g>
				<g id="XMLID_00000049213571062428060240000015974422439474722947_">
					<polygon id="XMLID_00000100380264204424614640000000992330976355342248_" class="st0" points="197.19,13.7 174.72,13.7 
						161.01,0 210.89,0 210.89,49.88 197.19,36.18 					"/>
					<polygon id="XMLID_00000149384356619154414800000012971396637224134036_" class="st0" points="174.7,36.19 174.7,16.45 
						160.59,30.55 160.59,50.3 180.34,50.3 194.44,36.19 					"/>
				</g>
			</g>
		</g>
	</g>
	<g>
		<polygon class="st0" points="214.33,68.76 214.33,89.98 196.05,68.76 189.91,68.76 189.91,99.28 196.01,99.28 196.01,78.05 
			214.29,99.28 220.44,99.28 220.44,68.76 		"/>
		<path class="st0" d="M98.22,68.76H73.8v6.11l23.99,0c0.24,0,0.43,0.19,0.43,0.43v17.44c0,0.24-0.19,0.43-0.43,0.43H79.9v-12.2
			H73.8v18.31h24.43c3.37,0,6.11-2.73,6.11-6.11v-18.3C104.33,71.49,101.6,68.76,98.22,68.76z"/>
		<g>
			<path class="st0" d="M44.82,93.17h13.95l2.64,6.1h6.65L54.85,68.76h-6.1L35.52,99.28h6.65L44.82,93.17z M51.79,77.07l4.33,10
				h-8.66L51.79,77.07z"/>
		</g>
		<g>
			<path class="st0" d="M175.62,68.77h-18.31c-3.37,0-6.1,2.73-6.1,6.1v18.29c0,3.37,2.73,6.1,6.1,6.1h18.31
				c3.37,0,6.1-2.73,6.1-6.1V74.87C181.72,71.5,178.99,68.77,175.62,68.77z M175.62,92.73c0,0.24-0.19,0.43-0.43,0.43h-17.44
				c-0.24,0-0.43-0.19-0.43-0.43V75.3c0-0.24,0.19-0.43,0.43-0.43h17.44c0.24,0,0.43,0.19,0.43,0.43V92.73z"/>
		</g>
		<g>
			<rect x="112.52" y="68.76" class="st0" width="30.5" height="6.1"/>
			<g>
				<polygon class="st0" points="112.52,80.96 112.52,99.27 143.02,99.27 143.02,93.17 118.62,93.17 118.62,87.07 143.02,87.07 
					143.02,80.96 				"/>
			</g>
		</g>
		<g>
			<path class="st0" d="M6.1,87.06h11.25l7.04,12.2h7.04l-7.04-12.2h0c3.37,0,6.1-2.73,6.1-6.1v-6.1c0-3.37-2.73-6.1-6.1-6.1H0v6.1
				h23.96c0.24,0,0.43,0.19,0.43,0.43v5.23c0,0.24-0.19,0.43-0.43,0.43H0v18.3h6.1V87.06z"/>
		</g>
	</g>
</g>
</svg>
