<svg width="300" height="200" viewBox="0 0 300 200" fill="none" xmlns="http://www.w3.org/2000/svg">
<mask id="mask0_5818_518" style="mask-type:luminance" maskUnits="userSpaceOnUse" x="12" y="68" width="276" height="66">
<path d="M12 68H288V133.333H12V68Z" fill="white"/>
</mask>
<g mask="url(#mask0_5818_518)">
<path d="M140.94 120.684H148.467C148.561 120.684 148.654 120.666 148.74 120.63C148.827 120.595 148.906 120.542 148.972 120.476C149.039 120.41 149.091 120.331 149.127 120.244C149.163 120.157 149.182 120.065 149.181 119.971V83.3707C149.181 83.2769 149.163 83.1841 149.127 83.0976C149.091 83.011 149.038 82.9324 148.972 82.8663C148.905 82.8001 148.827 82.7477 148.74 82.7121C148.653 82.6765 148.56 82.6583 148.467 82.6587H140.94C140.846 82.6583 140.753 82.6765 140.667 82.7121C140.58 82.7477 140.501 82.8001 140.435 82.8663C140.368 82.9324 140.316 83.011 140.28 83.0976C140.244 83.1841 140.225 83.2769 140.225 83.3707V119.984C140.225 120.373 140.537 120.697 140.94 120.697M144.697 68C141.811 68 139.653 70.0867 139.653 73.028C139.653 75.9707 141.747 78.0573 144.697 78.0573C147.648 78.0573 149.74 75.9053 149.74 73.028C149.74 70.152 147.648 68 144.697 68ZM285.687 112.557H283.021C281.215 112.557 279.928 111.404 279.928 109.473V70.644C279.928 70.5502 279.91 70.4572 279.874 70.3705C279.838 70.2838 279.785 70.205 279.719 70.1387C279.653 70.0724 279.574 70.0199 279.487 69.9842C279.4 69.9485 279.307 69.9303 279.213 69.9307H271.688C271.594 69.9301 271.501 69.9482 271.414 69.9838C271.327 70.0195 271.248 70.0719 271.181 70.1383C271.115 70.2046 271.062 70.2834 271.026 70.3702C270.99 70.457 270.972 70.55 270.972 70.644V109.396C270.972 115.707 276.107 120.827 282.437 120.827H287.272C287.366 120.827 287.459 120.809 287.546 120.773C287.633 120.738 287.712 120.685 287.778 120.619C287.845 120.553 287.897 120.474 287.933 120.387C287.969 120.3 287.987 120.207 287.987 120.113V113.257C287.987 113.164 287.968 113.071 287.932 112.984C287.896 112.898 287.844 112.819 287.777 112.753C287.711 112.687 287.632 112.634 287.545 112.599C287.459 112.563 287.366 112.545 287.272 112.545H285.673L285.687 112.557ZM123.12 88.296V83.3707C123.12 83.2769 123.102 83.1841 123.066 83.0976C123.03 83.011 122.977 82.9324 122.911 82.8663C122.844 82.8001 122.765 82.7477 122.679 82.7121C122.592 82.6765 122.499 82.6583 122.405 82.6587H114.957C114.864 82.6587 114.772 82.6771 114.686 82.7131C114.601 82.749 114.523 82.8016 114.458 82.8678C114.392 82.9341 114.341 83.0127 114.306 83.099C114.272 83.1853 114.255 83.2777 114.256 83.3707V119.984C114.256 120.373 114.568 120.684 114.957 120.684H122.405C122.593 120.685 122.773 120.613 122.907 120.481C123.041 120.35 123.118 120.171 123.12 119.984V100.92C123.12 93.248 128.124 90.6427 133.232 90.7467C133.636 90.7467 133.973 90.448 133.973 90.0467V82.7627C133.974 82.6676 133.956 82.5733 133.919 82.4856C133.883 82.3978 133.829 82.3183 133.761 82.2518C133.693 82.1853 133.612 82.1332 133.524 82.0987C133.435 82.0641 133.34 82.0478 133.245 82.0507C128.956 82.232 125.265 83.9547 123.12 88.296ZM247.187 82.0493C242.351 82.0493 238.244 83.812 235.007 87.6227V83.3707C235.007 83.2769 234.988 83.1841 234.952 83.0976C234.916 83.011 234.864 82.9324 234.797 82.8663C234.731 82.8001 234.652 82.7477 234.565 82.7121C234.479 82.6765 234.386 82.6583 234.292 82.6587H227.637C227.544 82.6581 227.451 82.6762 227.364 82.7117C227.277 82.7473 227.198 82.7997 227.132 82.8659C227.065 82.9321 227.013 83.0107 226.977 83.0974C226.941 83.184 226.922 83.2769 226.923 83.3707V132.633C226.923 133.023 227.235 133.347 227.637 133.347H235.163C235.257 133.347 235.35 133.329 235.436 133.293C235.523 133.258 235.602 133.205 235.669 133.139C235.735 133.073 235.788 132.994 235.824 132.907C235.859 132.82 235.878 132.727 235.877 132.633V117.521C238.685 120.113 242.299 121.268 246.549 121.268C257.871 121.268 264.421 114.075 264.421 101.503C264.421 95.5413 262.913 90.7973 259.807 87.272C256.713 83.7467 252.528 82.0627 247.199 82.0627M245.692 113.583C239.569 113.583 235.891 109.409 235.891 101.943V101.076C235.969 93.96 239.777 89.7867 245.912 89.7867C252.048 89.7867 255.569 94.4533 255.569 101.723C255.569 108.993 251.827 113.583 245.692 113.583ZM30.64 97.7053C26.3893 96.7853 24.2187 96.2787 24.0747 96.2147C22.0613 95.7213 21.0467 94.6467 21.0467 93.0147C21.0467 91.0173 22.9187 89.6693 26.0253 89.6693C28.872 89.6693 31.5493 90.46 34.032 92.0293L35.5787 93.0267C35.7305 93.1256 35.9143 93.1631 36.0928 93.1317C36.2712 93.1003 36.4311 93.0022 36.54 92.8573L37.7747 91.1867L40.4267 87.6093C40.535 87.4711 40.5847 87.2959 40.5653 87.1214C40.5458 86.9469 40.4587 86.787 40.3227 86.676C37.372 84.2133 32.4853 82.0493 26.8173 82.0493C18.096 82.0493 12.5453 86.456 12.5453 93.5067C12.5453 98.6267 16.0813 102.333 21.7747 103.68C22.7107 103.965 24.0107 104.251 25.596 104.6L29.0533 105.235C31.9387 105.805 33.5253 107.439 33.5253 109.435C33.5253 112 31.3667 113.555 27.0387 113.555C24.2053 113.555 21.2933 112.623 18.46 110.795L17.1733 109.965C17.0235 109.87 16.844 109.834 16.6689 109.862C16.4939 109.891 16.3355 109.983 16.224 110.121L15.652 110.847L12.156 115.344C12.0461 115.486 11.9943 115.664 12.0112 115.842C12.028 116.02 12.1122 116.186 12.2467 116.304C16.0813 119.635 21.0333 121.267 27.1813 121.267C36.6307 121.267 42.3893 116.64 42.3893 109.448C42.3893 103.821 38.14 99.416 30.64 97.7053ZM175.411 97.7053C171.161 96.7853 168.991 96.2787 168.847 96.2147C166.832 95.7213 165.819 94.6467 165.819 93.0147C165.819 91.0173 167.691 89.6693 170.797 89.6693C173.644 89.6693 176.321 90.46 178.804 92.0293L180.351 93.0267C180.503 93.1256 180.686 93.1631 180.865 93.1317C181.043 93.1003 181.203 93.0022 181.312 92.8573L182.547 91.1867L185.199 87.6093C185.307 87.4711 185.357 87.2959 185.337 87.1214C185.318 86.9469 185.231 86.787 185.095 86.676C182.144 84.2133 177.257 82.0493 171.589 82.0493C162.868 82.0493 157.317 86.456 157.317 93.5067C157.317 98.6267 160.853 102.333 166.547 103.68C167.483 103.965 168.783 104.251 170.368 104.6L173.825 105.235C176.711 105.805 178.297 107.439 178.297 109.435C178.297 112 176.139 113.555 171.811 113.555C168.977 113.555 166.065 112.623 163.219 110.781L161.932 109.953C161.782 109.858 161.603 109.822 161.428 109.85C161.253 109.879 161.095 109.97 160.983 110.108L160.087 111.261L156.928 115.305C156.818 115.447 156.766 115.625 156.783 115.803C156.8 115.982 156.884 116.147 157.019 116.265C160.853 119.596 165.805 121.228 171.953 121.228C181.403 121.228 187.161 116.601 187.161 109.408C187.161 103.784 182.911 99.3773 175.411 97.6667" fill="white"/>
<path d="M206.424 100.336C200.328 100.336 195.376 105.261 195.376 111.352C195.376 117.444 200.316 122.369 206.424 122.369C212.533 122.369 217.473 117.444 217.473 111.352C217.473 105.261 212.533 100.336 206.424 100.336Z" fill="white"/>
<path d="M68.9574 69.944H62.0547C54.92 69.944 50.5907 74.1827 50.5907 81.2973V83.7467H46.0414C45.9493 83.7463 45.858 83.7642 45.7729 83.7992C45.6877 83.8342 45.6103 83.8858 45.5451 83.9508C45.48 84.0159 45.4283 84.0932 45.3931 84.1783C45.3579 84.2634 45.3399 84.3546 45.34 84.4467V90.8627C45.34 91.2507 45.652 91.5747 46.0414 91.5747H50.5907V120.049C50.5907 120.437 50.9027 120.749 51.3067 120.749H58.832C59.0195 120.751 59.1999 120.678 59.3338 120.547C59.4677 120.416 59.5442 120.237 59.5467 120.049V91.5733H66.7734C66.8665 91.5735 66.9587 91.5552 67.0447 91.5193C67.1306 91.4835 67.2085 91.4309 67.274 91.3646C67.3394 91.2984 67.3909 91.2197 67.4256 91.1333C67.4603 91.0469 67.4774 90.9544 67.476 90.8613V84.4453C67.4762 84.3531 67.4581 84.2618 67.4228 84.1766C67.3876 84.0914 67.3358 84.0141 67.2705 83.949C67.2051 83.8839 67.1276 83.8325 67.0423 83.7975C66.957 83.7625 66.8656 83.7448 66.7734 83.7453H59.5467V81.296C59.5467 79.352 60.8467 78.212 62.64 78.212H68.9574C69.0512 78.2124 69.1442 78.1942 69.231 78.1584C69.3177 78.1227 69.3966 78.0702 69.463 78.0039C69.5294 77.9376 69.5821 77.8589 69.618 77.7722C69.6538 77.6855 69.6722 77.5925 69.672 77.4987V70.644C69.6722 70.5502 69.6538 70.4572 69.618 70.3705C69.5821 70.2838 69.5294 70.205 69.463 70.1387C69.3966 70.0724 69.3177 70.0199 69.231 69.9842C69.1442 69.9485 69.0512 69.9303 68.9574 69.9307M107.573 98.5093C105.807 88.5293 98.4107 82.0493 89.3507 82.0493C88.2334 82.0493 87.076 82.1533 85.92 82.3467C74.872 84.2907 68.2814 93.8173 70.2574 104.989C71.2187 110.393 73.936 114.956 77.9134 117.845C82.0467 120.84 87.2334 121.889 92.8867 120.904C99.672 119.712 104.689 115.851 106.82 110.224C106.86 110.125 106.876 110.018 106.868 109.911C106.86 109.804 106.828 109.701 106.775 109.608C106.721 109.516 106.646 109.437 106.558 109.378C106.469 109.318 106.367 109.28 106.261 109.265L98.6707 108.177C98.5222 108.158 98.3712 108.184 98.2384 108.254C98.1057 108.323 97.9977 108.432 97.9294 108.565C97.2934 109.863 95.3694 112.843 90.9374 113.633C85.9067 114.515 81.644 112.013 79.5374 106.92L79.4467 106.713L79.668 106.673L107.236 101.827C107.405 101.796 107.557 101.706 107.664 101.573C107.772 101.44 107.828 101.273 107.823 101.101C107.787 100.233 107.7 99.3674 107.561 98.5093M78.472 99.8693C78.2894 93.4027 83.1774 90.512 86.7787 89.8907C90.3654 89.1773 95.9667 90.124 98.1254 96.228L78.472 99.856V99.8693Z" fill="white"/>
</g>
</svg>
