<svg width="300" height="200" viewBox="0 0 300 200" fill="none" xmlns="http://www.w3.org/2000/svg">
<g clip-path="url(#clip0_2_3408)">
<path fill-rule="evenodd" clip-rule="evenodd" d="M23.4189 121.66H35.9288L21.2845 104.704C21.2845 104.704 18.913 107.609 17.5494 109.328C16.1857 111.047 16.7786 113.953 17.7865 115.138C18.7944 116.324 23.4189 121.66 23.4189 121.66Z" fill="white"/>
<path fill-rule="evenodd" clip-rule="evenodd" d="M23.4189 121.66H35.9288L21.2845 104.704C21.2845 104.704 18.913 107.609 17.5494 109.328C16.1857 111.047 16.7786 113.953 17.7865 115.138C18.7944 116.324 23.4189 121.66 23.4189 121.66Z" fill="white"/>
<path fill-rule="evenodd" clip-rule="evenodd" d="M2.96443 83.1225C5.45455 80.0395 9.48617 75 9.48617 75C9.48617 75 9.48617 94.3281 9.48617 101.858C9.48617 104.466 8.65613 106.364 7.11462 108.32C4.44664 111.759 0 117.154 0 117.154C0 117.154 0 95.9881 0 90.415C0.0592885 86.502 0.711462 85.9684 2.96443 83.1225Z" fill="white"/>
<path fill-rule="evenodd" clip-rule="evenodd" d="M23.0632 87.6877H35.2174C35.2174 87.6877 19.0909 107.49 17.7273 109.387C16.0079 111.759 17.3123 114.664 17.7273 115.198C18.1423 115.731 12.1542 108.972 11.502 108.261C9.8419 106.364 9.90119 103.814 11.502 101.858C13.1028 99.8419 23.0632 87.6877 23.0632 87.6877Z" fill="white"/>
<path d="M67.9447 94.3874H62.668L54.0712 105.237V94.4466H49.506V117.036H54.0712V105.83L63.6759 117.036H69.3084L59.2293 105.296L67.9447 94.3874Z" fill="white"/>
<path d="M289.862 105.296L298.636 94.3874H293.36L284.763 105.237V94.4466H280.198V117.036H284.763V105.83L294.368 117.036H300L289.862 105.296Z" fill="white"/>
<path d="M80.4546 93.6759C73.8143 93.6759 68.3597 99.0712 68.3597 105.711C68.3597 112.352 73.755 117.747 80.4546 117.747C87.0949 117.747 92.4902 112.352 92.4902 105.711C92.4902 99.0712 87.0949 93.6759 80.4546 93.6759ZM80.4546 113.182C76.3044 113.182 72.925 109.862 72.925 105.711C72.925 101.561 76.3044 98.2411 80.4546 98.2411C84.5455 98.2411 87.925 101.621 87.925 105.711C87.925 109.862 84.6048 113.182 80.4546 113.182Z" fill="white"/>
<path d="M121.719 93.6759C118.281 93.6759 115.613 95.336 114.071 98.2411C112.767 94.8024 110.217 93.6759 107.372 93.6759C104.466 93.6759 102.154 94.8024 100.613 96.8775L100.435 94.4467H96.166V117.036H100.731V104.941C100.731 100.494 102.51 98.2411 105.949 98.2411C108.913 98.2411 110.514 99.9605 110.514 104.704V117.036H115.079V104.704C115.079 100.316 117.036 98.2411 120.296 98.2411C123.32 98.2411 124.921 100.079 124.921 104.941V117.036H129.486V104.941C129.427 96.2253 125.988 93.6759 121.719 93.6759Z" fill="white"/>
<path d="M146.917 93.6759C143.656 93.6759 140.929 95.0988 139.15 97.5889L138.913 94.3874H134.763V125.573H139.209V114.012C140.988 116.443 143.656 117.806 146.917 117.806C153.676 117.806 157.945 112.055 157.945 105.771C157.945 99.0119 153.261 93.6759 146.917 93.6759ZM146.206 113.241C142.115 113.241 139.209 110.04 139.209 105.771C139.209 101.324 142.352 98.3004 146.206 98.3004C150.178 98.3004 153.379 101.502 153.379 105.771C153.439 109.802 150.415 113.241 146.206 113.241Z" fill="white"/>
<path d="M176.206 94.3874V107.016C176.206 110.751 173.953 112.885 170.988 112.885C168.142 112.885 165.949 110.751 165.949 107.016V94.3874H161.383V107.075C161.383 113.241 165.534 117.332 170.988 117.332C176.502 117.332 180.711 113.182 180.711 107.075V94.3874H176.206Z" fill="white"/>
<path d="M191.858 109.743V98.834H197.253V94.3874H191.858V90H187.589V91.9565C187.589 93.7352 186.7 94.7431 185.04 94.7431H184.269V98.8933H187.293V109.802C187.293 114.783 189.308 117.51 193.103 117.51C194.466 117.51 196.186 117.213 197.312 116.858V112.648C196.364 112.945 195.296 113.182 194.526 113.182C192.688 113.063 191.858 111.818 191.858 109.743Z" fill="white"/>
<path d="M207.154 97.9447L206.917 94.3873H202.648V117.036H207.213V107.312C207.213 100.198 211.067 98.5375 214.328 98.4783C214.565 98.4783 214.802 98.4783 214.98 98.4783L215.692 93.498C212.727 93.498 209.348 94.6838 207.154 97.9447Z" fill="white"/>
<path d="M228.617 93.6759C221.976 93.6759 216.522 99.0712 216.522 105.711C216.522 112.352 221.917 117.747 228.617 117.747C235.257 117.747 240.652 112.352 240.652 105.711C240.593 99.0712 235.198 93.6759 228.617 93.6759ZM228.617 113.182C224.466 113.182 221.087 109.862 221.087 105.711C221.087 101.561 224.466 98.2411 228.617 98.2411C232.707 98.2411 236.087 101.621 236.087 105.711C236.028 109.862 232.707 113.182 228.617 113.182Z" fill="white"/>
<path d="M256.126 93.7945C253.162 93.7945 250.791 94.9209 249.13 96.996L248.893 94.3281H244.625V117.036H249.19V104.822C249.19 100.435 251.324 98.2411 254.644 98.2411C257.905 98.2411 259.862 100.02 259.862 104.822V117.036H264.427V104.822C264.427 96.2253 260.632 93.7945 256.126 93.7945Z" fill="white"/>
<path d="M274.802 94.3874H270.237V117.036H274.802V94.3874Z" fill="white"/>
<path d="M272.549 85.7312C271.067 85.7312 269.822 86.917 269.822 88.4585C269.822 89.9407 271.008 91.1858 272.549 91.1858C274.032 91.1858 275.277 90 275.277 88.4585C275.217 86.9763 274.032 85.7312 272.549 85.7312Z" fill="white"/>
</g>
<defs>
<clipPath id="clip0_2_3408">
<rect width="300" height="50.5731" fill="white" transform="translate(0 75)"/>
</clipPath>
</defs>
</svg>
