<svg width="300" height="200" viewBox="0 0 300 200" fill="none" xmlns="http://www.w3.org/2000/svg">
<g clip-path="url(#clip0_5818_401)">
<path d="M28.535 99.8135C28.535 96.9919 27.6983 94.2336 26.1307 91.8874C24.563 89.5413 22.3349 87.7127 19.728 86.6329C17.1211 85.5531 14.2526 85.2705 11.4851 85.821C8.71763 86.3715 6.17555 87.7303 4.18033 89.7255C2.1851 91.7207 0.826328 94.2628 0.275845 97.0303C-0.274637 99.7977 0.00789048 102.666 1.0877 105.273C2.16751 107.88 3.99611 110.108 6.34225 111.676C8.68839 113.243 11.4467 114.08 14.2684 114.08C16.1419 114.08 17.9971 113.711 19.728 112.994C21.4589 112.277 23.0317 111.226 24.3564 109.902C25.6812 108.577 26.7321 107.004 27.4491 105.273C28.166 103.542 28.535 101.687 28.535 99.8135Z" fill="white"/>
<path d="M76.0867 99.8135C76.0867 95.1105 74.6921 90.5132 72.0792 86.6028C69.4664 82.6924 65.7526 79.6447 61.4076 77.845C57.0625 76.0453 52.2814 75.5746 47.6688 76.4922C43.0563 77.4098 38.8194 79.6746 35.494 83.0003C32.1686 86.3259 29.904 90.5629 28.9867 95.1756C28.0694 99.7883 28.5406 104.569 30.3405 108.914C32.1405 113.259 35.1885 116.973 39.0991 119.585C43.0096 122.198 47.6071 123.592 52.31 123.592C58.6162 123.591 64.6638 121.086 69.1228 116.627C73.5817 112.167 76.0867 106.12 76.0867 99.8135Z" fill="white"/>
<path d="M95.1117 99.8149C95.1117 97.9337 94.5539 96.0947 93.5087 94.5305C92.4635 92.9663 90.978 91.7472 89.24 91.0273C87.502 90.3073 85.5895 90.119 83.7444 90.486C81.8993 90.853 80.2045 91.7589 78.8743 93.0891C77.544 94.4194 76.6382 96.1142 76.2712 97.9593C75.9041 99.8043 76.0925 101.717 76.8124 103.455C77.5323 105.193 78.7515 106.678 80.3156 107.724C81.8798 108.769 83.7188 109.327 85.6 109.327C88.1227 109.327 90.542 108.324 92.3258 106.541C94.1096 104.757 95.1117 102.338 95.1117 99.8149Z" fill="white"/>
<path d="M114.165 84.3033H121.15L121.758 87.3383H122.06C122.575 86.6451 123.189 86.0318 123.883 85.5183C125.455 84.3275 127.375 83.6868 129.347 83.695C131.692 83.6533 133.982 84.405 135.847 85.8283C136.605 86.4476 137.278 87.165 137.847 87.9617H138.152C138.786 87.16 139.521 86.443 140.338 85.8283C142.361 84.4025 144.784 83.6555 147.258 83.695C148.835 83.7478 150.385 84.1122 151.82 84.7672C153.255 85.4222 154.546 86.3549 155.618 87.5115C156.691 88.668 157.524 90.0255 158.069 91.5056C158.614 92.9857 158.861 94.5591 158.795 96.135V115.262H151.207V96.75C151.207 92.805 149.142 90.68 146.04 90.68C145.256 90.6787 144.481 90.8371 143.76 91.1456C143.04 91.4541 142.39 91.9062 141.85 92.4742C141.31 93.0423 140.892 93.7144 140.621 94.4495C140.349 95.1847 140.23 95.9674 140.272 96.75V115.272H132.682V96.75C132.682 92.805 130.617 90.68 127.515 90.68C126.731 90.6785 125.956 90.8367 125.235 91.1451C124.515 91.4535 123.865 91.9056 123.325 92.4737C122.785 93.0418 122.366 93.714 122.095 94.4493C121.824 95.1845 121.705 95.9674 121.747 96.75V115.272H114.165V84.3033Z" fill="white"/>
<path d="M186.735 99.7883C186.735 94.3216 183.092 90.6783 178.535 90.6783C173.978 90.6783 170.338 94.3216 170.338 99.7883C170.338 105.255 173.982 108.895 178.535 108.895C183.088 108.895 186.735 105.252 186.735 99.7883ZM194.323 99.7883C194.367 101.889 193.99 103.977 193.216 105.93C192.442 107.883 191.286 109.662 189.816 111.163C188.346 112.663 186.591 113.856 184.654 114.67C182.717 115.483 180.638 115.903 178.537 115.903C176.436 115.903 174.356 115.483 172.419 114.67C170.482 113.856 168.728 112.663 167.257 111.163C165.787 109.662 164.631 107.883 163.857 105.93C163.083 103.977 162.707 101.889 162.75 99.7883C162.707 97.6878 163.083 95.5999 163.857 93.6468C164.631 91.6937 165.787 89.9146 167.257 88.4139C168.728 86.9132 170.482 85.7209 172.419 84.907C174.356 84.0931 176.436 83.6738 178.537 83.6738C180.638 83.6738 182.717 84.0931 184.654 84.907C186.591 85.7209 188.346 86.9132 189.816 88.4139C191.286 89.9146 192.442 91.6937 193.216 93.6468C193.99 95.5999 194.367 97.6878 194.323 99.7883Z" fill="white"/>
<path d="M241.222 97.055C240.555 93.11 237.942 90.07 233.63 90.07C229.01 90.07 226.343 93.1084 225.433 97.055H241.222ZM247.9 106.165C246.883 109.104 244.945 111.636 242.375 113.386C239.804 115.136 236.737 116.01 233.63 115.878C231.516 115.935 229.412 115.555 227.451 114.762C225.49 113.97 223.713 112.782 222.232 111.272C220.75 109.762 219.596 107.963 218.841 105.987C218.085 104.012 217.745 101.901 217.842 99.7884C217.745 97.6753 218.085 95.5651 218.841 93.5894C219.596 91.6136 220.75 89.8147 222.232 88.305C223.713 86.7952 225.49 85.6069 227.451 84.8144C229.412 84.0218 231.516 83.6419 233.63 83.6984C235.652 83.6872 237.656 84.0824 239.523 84.8604C241.39 85.6384 243.081 86.7834 244.497 88.2275C245.913 89.6715 247.024 91.3853 247.765 93.267C248.506 95.1487 248.861 97.16 248.81 99.1817C248.795 99.9137 248.734 100.644 248.628 101.368L248.507 102.218H225.43C225.648 104.234 226.608 106.096 228.123 107.442C229.638 108.789 231.6 109.524 233.627 109.505C234.89 109.569 236.148 109.294 237.27 108.708C238.391 108.122 239.335 107.246 240.003 106.172L247.9 106.165Z" fill="white"/>
<path d="M253.168 76H260.76V108.292H267.137V115.272H260.76C255.902 115.272 253.168 112.605 253.168 107.985V76Z" fill="white"/>
<path d="M198.552 84.2817H204.95L205.562 87.0184H205.868C206.251 86.5161 206.699 86.0676 207.202 85.6851C208.389 84.7781 209.841 84.2872 211.335 84.2884H216.335V91.5851H211.92C208.087 91.5851 206.145 93.5301 206.145 97.3601V115.297H198.552V84.2817Z" fill="white"/>
<path d="M292.412 97.0551C291.745 93.1101 289.132 90.0701 284.82 90.0701C280.2 90.0701 277.533 93.1084 276.623 97.0551H292.412ZM299.09 106.165C298.073 109.104 296.135 111.637 293.565 113.386C290.994 115.136 287.927 116.01 284.82 115.878C282.705 115.935 280.602 115.555 278.641 114.763C276.68 113.97 274.903 112.782 273.421 111.272C271.94 109.763 270.785 107.964 270.03 105.988C269.275 104.012 268.935 101.901 269.032 99.7884C268.935 97.6753 269.275 95.565 270.03 93.5891C270.785 91.6133 271.94 89.8143 273.421 88.3045C274.903 86.7946 276.68 85.6064 278.641 84.8139C280.602 84.0214 282.705 83.6417 284.82 83.6984C286.842 83.6873 288.846 84.0824 290.713 84.8604C292.58 85.6384 294.271 86.7834 295.687 88.2275C297.103 89.6716 298.214 91.3853 298.955 93.267C299.696 95.1487 300.051 97.1601 300 99.1817C299.985 99.9137 299.925 100.644 299.818 101.368L299.698 102.218H276.623C276.842 104.234 277.802 106.096 279.317 107.442C280.831 108.789 282.793 109.524 284.82 109.505C286.084 109.569 287.342 109.294 288.463 108.708C289.584 108.122 290.528 107.246 291.197 106.172L299.09 106.165Z" fill="white"/>
</g>
<defs>
<clipPath id="clip0_5818_401">
<rect width="300" height="48.3333" fill="white" transform="translate(0 76)"/>
</clipPath>
</defs>
</svg>
